<?xml version="1.0" encoding="utf-8"?>
<!-- Generator: Adobe Illustrator 24.3.0, SVG Export Plug-In . SVG Version: 6.00 Build 0)  -->
<svg version="1.1" id="Layer_1" xmlns="http://www.w3.org/2000/svg" xmlns:xlink="http://www.w3.org/1999/xlink" x="0px" y="0px"
	 viewBox="0 0 115 120" style="enable-background:new 0 0 115 120;" xml:space="preserve">
<style type="text/css">
	.st0{fill-rule:evenodd;clip-rule:evenodd;}
</style>
<g id="Nav_x2F_HP_x2F_1500" transform="translate(-45.000000, 0.000000)">
	<g id="InfinitiLogo_USCAN_RGB_V1-Copy" transform="translate(45.000000, 0.000000)">
		<g>
			<g transform="translate(0.000000, 34.000000)">
				<path id="Fill-1_6_" class="st0" d="M43.1,19.3c-3.8-0.3-10.4-2.8-10.4-7.1c0-5.5,9.6-10.6,21.6-10.6C67,1.6,76,6.7,76,12.2
					c0,4.3-6.6,6.8-10.4,7.1c-1-1.3-11.3-15-11.3-15S44.1,18.1,43.1,19.3z M73.4,24c5-2.5,7.4-6.6,7.4-10.2C80.8,6,70,0,54.4,0
					C38.8,0,28,6,28,13.8c0,3.6,2.4,7.7,7.4,10.2c4.7,2.3,11.3,3.1,12.2,3.2l6.8-19.8l6.9,19.8C62.2,27.1,68.7,26.3,73.4,24z"/>
				<g id="INFINITI_6_" transform="translate(0.000000, 39.628378)">
					<path id="Fill-2_6_" class="st0" d="M19.4,9.3c0,0-3.3-8.7-3.4-8.9C15.9,0.1,15.7,0,15.4,0h-3.2v11.3h2.2V2.1
						c0,0,3.3,8.6,3.4,8.8c0.1,0.2,0.3,0.4,0.6,0.4h3.3V0h-2.2V9.3z"/>
					<path id="Fill-3_6_" class="st0" d="M30.8,11.3h2.5c0,0,0-4.6,0-4.8h4.6V4.4l-4.6,0V2.1h4.6V0h-7.2V11.3z"/>
					<polygon id="Fill-4_6_" class="st0" points="89.4,2.2 92.2,2.2 92.2,11.3 94.8,11.3 94.8,2.2 97.6,2.2 97.6,0 89.4,0 					"/>
					<polygon id="Fill-5_6_" class="st0" points="46.8,11.3 49.6,11.3 49.6,0 46.8,0 					"/>
					<polygon id="Fill-6_6_" class="st0" points="77.9,11.3 80.6,11.3 80.6,0 77.9,0 					"/>
					<polygon id="Fill-7_6_" class="st0" points="106.2,11.3 109,11.3 109,0 106.2,0 					"/>
					<polygon id="Fill-8_6_" class="st0" points="0,11.3 2.7,11.3 2.7,0 0,0 					"/>
					<path id="Fill-9_6_" class="st0" d="M66.3,0v9.3c0,0-3.3-8.7-3.4-8.9C62.8,0.1,62.6,0,62.3,0h-3.2v11.3h2.2V2.1
						c0,0,3.3,8.6,3.4,8.8c0.1,0.2,0.3,0.4,0.6,0.4h3.3V0H66.3z"/>
					<path id="Fill-25_6_" class="st0" d="M113.3,9.9c0.1,0,0.3,0,0.3-0.2c0-0.2-0.1-0.2-0.3-0.2h-0.2v0.5H113.3z M113.4,10l0.6,0.5
						h-0.3l-0.6-0.5h0v0.5h-0.3V9.2h0.6c0.3,0,0.5,0.1,0.5,0.4C113.9,9.8,113.7,10,113.4,10L113.4,10z M113.3,8.7
						c-0.7,0-1.2,0.5-1.2,1.2c0,0.7,0.6,1.2,1.2,1.2c0.7,0,1.2-0.5,1.2-1.2C114.6,9.2,114,8.7,113.3,8.7z M113.3,11.4
						c-0.9,0-1.6-0.7-1.6-1.5c0-0.8,0.7-1.5,1.6-1.5c0.9,0,1.6,0.7,1.6,1.5C114.9,10.7,114.2,11.4,113.3,11.4z"/>
				</g>
			</g>
		</g>
	</g>
</g>
</svg>
